<svg xmlns="http://www.w3.org/2000/svg" viewBox="0 0 142.37 72.75"><defs><style>.cls-1{fill:#fff;}</style></defs><title>logof</title><g id="图层_2" data-name="图层 2"><g id="图层_1-2" data-name="图层 1"><g id="图层_1-2-2" data-name="图层 1-2"><path class="cls-1" d="M9.33,5.65q1.83,2.67,2.57,3.82H12q1-1.59,2.55-3.8L18.17.44H23.5L14.69,12.9l9.19,12.86H18.62l-4-5.65c-1-1.39-1.87-2.7-2.69-3.94h0c-.85,1.29-1.75,2.6-2.68,3.94l-4,5.65H0L9.2,12.9.38.44H5.72Z"/><path class="cls-1" d="M46,8.05a7,7,0,0,1-1.46,4.5A8.72,8.72,0,0,1,40,15.28v.08l7.53,10.4H42L35.11,16H31.93v9.8H27.29V.44H35a28.24,28.24,0,0,1,3.56.22,13,13,0,0,1,2.82.65,7.29,7.29,0,0,1,3.44,2.53A7,7,0,0,1,46,8.05Zm-11.8,4A22.3,22.3,0,0,0,36.91,12a7.94,7.94,0,0,0,1.87-.43,3.59,3.59,0,0,0,1.94-1.44A4.1,4.1,0,0,0,41.26,8a3.8,3.8,0,0,0-.43-1.81A2.87,2.87,0,0,0,39.38,5a6,6,0,0,0-1.66-.45,18.65,18.65,0,0,0-2.48-.14H31.93v7.76Z"/><path class="cls-1" d="M56.26,21.88H68.72v3.88H51.63V.44H68V4.32H56.26v6.55H66.37v3.88H56.26Z"/><path class="cls-1" d="M97.18,13.1a16.24,16.24,0,0,1-.83,5.31A11.76,11.76,0,0,1,94,22.57a10.7,10.7,0,0,1-3.88,2.7,14.62,14.62,0,0,1-10.46,0,10.7,10.7,0,0,1-3.88-2.7,11.82,11.82,0,0,1-2.41-4.16,17.62,17.62,0,0,1,0-10.61,11.73,11.73,0,0,1,2.41-4.16A10.56,10.56,0,0,1,79.61,1,14.62,14.62,0,0,1,90.07,1,10.57,10.57,0,0,1,94,3.64,11.56,11.56,0,0,1,96.4,7.8,16.14,16.14,0,0,1,97.18,13.1Zm-4.79,0a12.86,12.86,0,0,0-.57-4,8.25,8.25,0,0,0-1.57-2.88A6.08,6.08,0,0,0,87.87,4.5a8.34,8.34,0,0,0-6.06,0,6.08,6.08,0,0,0-2.38,1.72A8.09,8.09,0,0,0,77.86,9.1a14.6,14.6,0,0,0,0,8.08,7.94,7.94,0,0,0,1.57,2.88,6.36,6.36,0,0,0,2.38,1.72,8.24,8.24,0,0,0,6.06,0,6.36,6.36,0,0,0,2.38-1.72,8.27,8.27,0,0,0,1.57-2.88A12.82,12.82,0,0,0,92.39,13.1Z"/><path class="cls-1" d="M13.13,72.75a15.32,15.32,0,0,1-3.57-.39,10,10,0,0,1-2.8-1.12,7.85,7.85,0,0,1-2.07-1.78,9.17,9.17,0,0,1-1.36-2.37,10.67,10.67,0,0,1-.6-2.35,19.67,19.67,0,0,1-.18-2.87V47H7.19v14.5a11.12,11.12,0,0,0,.64,4.2A4.78,4.78,0,0,0,9.94,68.1a6.67,6.67,0,0,0,3.25.75,6.73,6.73,0,0,0,3.26-.75,4.76,4.76,0,0,0,2.1-2.43,11.12,11.12,0,0,0,.64-4.2V47h4.64v14.9a19.67,19.67,0,0,1-.18,2.87,10.67,10.67,0,0,1-.6,2.35,8.62,8.62,0,0,1-1.37,2.37,8,8,0,0,1-2.1,1.78,10.45,10.45,0,0,1-2.85,1.12A15.57,15.57,0,0,1,13.13,72.75Z"/><path class="cls-1" d="M43,58.72q2.72,3.89,4.43,6.89h.11c-.15-3.3-.23-5.69-.23-7.19V47H52v25.3H47.07L38.81,60.62a83.21,83.21,0,0,1-4.5-7H34.2q.22,4.65.22,7.21V72.27H29.79V47h4.86Z"/><path class="cls-1" d="M58,72.27V47h4.64v25.3Z"/><path class="cls-1" d="M87.94,69c.32-.09.68-.17,1.08-.25s.82-.14,1.26-.19.87-.09,1.31-.11.86,0,1.27,0h.36v4c-.67-.06-1.47-.11-2.42-.15s-2-.06-3-.06c-.79,0-1.51,0-2.14.06l-1.9.12-2,.13h-2a13.44,13.44,0,0,1-5.24-.94A10.59,10.59,0,0,1,70.69,69a11.57,11.57,0,0,1-2.34-4.12,16.69,16.69,0,0,1-.8-5.29,16.2,16.2,0,0,1,.83-5.31,11.52,11.52,0,0,1,2.4-4.15,10.73,10.73,0,0,1,3.88-2.71,14.73,14.73,0,0,1,10.46,0A10.81,10.81,0,0,1,89,50.13a11.48,11.48,0,0,1,2.41,4.1,15.75,15.75,0,0,1,.82,5.19A14.72,14.72,0,0,1,92,62.3a12.59,12.59,0,0,1-.83,2.61,11.26,11.26,0,0,1-1.35,2.26A8.63,8.63,0,0,1,87.9,69Zm-.51-9.43a12.86,12.86,0,0,0-.57-4,8.09,8.09,0,0,0-1.57-2.88A6.28,6.28,0,0,0,82.91,51a8.44,8.44,0,0,0-6.06,0,6.28,6.28,0,0,0-2.38,1.73,8.25,8.25,0,0,0-1.57,2.88,14.6,14.6,0,0,0,0,8.08,8.27,8.27,0,0,0,1.57,2.88,6.36,6.36,0,0,0,2.38,1.72,8.24,8.24,0,0,0,6.06,0,6.36,6.36,0,0,0,2.38-1.72,7.94,7.94,0,0,0,1.57-2.88A12.92,12.92,0,0,0,87.43,59.61Z"/><path class="cls-1" d="M108.63,72.75a15.4,15.4,0,0,1-3.58-.39,10.13,10.13,0,0,1-2.8-1.12,7.48,7.48,0,0,1-2.06-1.78,9.21,9.21,0,0,1-1.37-2.37,11.24,11.24,0,0,1-.59-2.35,19.67,19.67,0,0,1-.18-2.87V47h4.64v14.5a11.12,11.12,0,0,0,.64,4.2,4.76,4.76,0,0,0,2.1,2.43,7.44,7.44,0,0,0,6.51,0,4.76,4.76,0,0,0,2.1-2.43,11.12,11.12,0,0,0,.64-4.2V47h4.64v14.9a19.67,19.67,0,0,1-.18,2.87,10.67,10.67,0,0,1-.6,2.35,8.38,8.38,0,0,1-1.37,2.37,7.8,7.8,0,0,1-2.1,1.78,10.45,10.45,0,0,1-2.85,1.12A15.49,15.49,0,0,1,108.63,72.75Z"/><path class="cls-1" d="M129.92,68.39h12.45v3.88H125.28V47h16.41v3.88H129.92V57.4H140v3.88H129.9Z"/></g></g></g></svg>